# xmcd
#
# Track frame offsets:
#	150
#	35248
#	58472
#	87258
#	108099
#	132670
#	149437
#	165758
#	177989
#	190824
#	215530
#	230412
#	253819
#	267361
#	268078
#	286697
#	303724
#	328967
#	344802
#
# Disc length: 4798 seconds
#
# Revision: 1
# Processed by: cddbd v1.5.2PL0 Copyright (c) Steve Scherf et al.
# Submitted via: audiograbber 1.83.01
#
DISCID=3512bc13
DTITLE=El Cruce - 10 años de Blues Criollo [CD2]
DYEAR=2009
DGENRE=Blues
TTITLE0=Niña De Lluvia
TTITLE1=Chica Ideal
TTITLE2=Hoy No Lloraré Por Ti
TTITLE3=Para De Odiar
TTITLE4=Soledad
TTITLE5=Tal Vez Será Mejor (En Otra Ocasión)
TTITLE6=La Gata
TTITLE7=A Mi País
TTITLE8=Su Servidor
TTITLE9=El Blues Del Yoni
TTITLE10=La Chinita Y Yo
TTITLE11=Dicen Que Soy Borracho
TTITLE12=Sentir
TTITLE13=¡Tira La Pelota, Hue'ón!
TTITLE14=Yo No Quiero Prensa
TTITLE15=Mi Moto Y Un Blues
TTITLE16=Blues Al Desaparecido
TTITLE17=No Dejaré De Pelear
TTITLE18=La Chinita Y Yo
EXTD=http://www.sello-ovejanegra.cl/
EXTT0=
EXTT1=
EXTT2=
EXTT3=
EXTT4=
EXTT5=
EXTT6=
EXTT7=
EXTT8=
EXTT9=
EXTT10=
EXTT11=
EXTT12=
EXTT13=
EXTT14=
EXTT15=
EXTT16=
EXTT17=
EXTT18=(Acústico)
PLAYORDER=
